<svg width="84" height="84" viewBox="0 0 84 84" fill="none" xmlns="http://www.w3.org/2000/svg">
<g clip-path="url(#clip0_1_714)">
<path d="M43.6804 5.04004C32.694 5.04004 23.7425 13.8869 23.54 24.826C23.4848 25.0701 23.4848 25.3234 23.54 25.5675C23.739 36.5096 32.6918 45.36 43.6804 45.36C49.3867 45.36 54.5591 42.9761 58.2261 39.1552C61.6209 35.6191 63.7245 30.8302 63.8207 25.5708C63.8754 25.3278 63.8754 25.0756 63.8207 24.8325C63.6217 13.8904 54.6689 5.04004 43.6804 5.04004ZM43.6804 8.40004C44.3404 8.40004 45.0251 8.67345 45.8066 9.40082C46.5881 10.1282 47.3969 11.304 48.0904 12.8297C48.4059 13.524 48.6948 14.2941 48.9566 15.12H38.4041C38.666 14.2941 38.9548 13.524 39.2704 12.8297C39.9639 11.304 40.7726 10.1282 41.5541 9.40082C42.3356 8.67345 43.0203 8.40004 43.6804 8.40004ZM37.108 9.73223C36.7918 10.2713 36.4879 10.832 36.2122 11.4385C35.7067 12.5507 35.293 13.8065 34.926 15.12H30.2371C32.0016 12.7693 34.3648 10.8959 37.108 9.73223ZM50.2527 9.73223C52.9959 10.8959 55.3591 12.7693 57.1236 15.12H52.4347C52.0677 13.8065 51.654 12.5507 51.1485 11.4385C50.8728 10.832 50.5689 10.2713 50.2527 9.73223ZM28.3077 18.48H34.1844C33.9131 20.0869 33.7082 21.7566 33.6397 23.52H26.9624C27.1386 21.7371 27.6201 20.0532 28.3077 18.48ZM37.5936 18.48H49.7671C50.0635 20.0574 50.2833 21.7348 50.361 23.52H36.9997C37.0775 21.7348 37.2973 20.0574 37.5936 18.48ZM53.1763 18.48H59.053C59.7406 20.0532 60.2221 21.7371 60.3983 23.52H53.721C53.6525 21.7566 53.4476 20.0869 53.1763 18.48ZM26.9624 26.88H33.6397C33.7082 28.6435 33.9131 30.3132 34.1844 31.92H28.3077C27.6201 30.3468 27.1386 28.6629 26.9624 26.88ZM36.9997 26.88H50.361C50.2833 28.6653 50.0635 30.3426 49.7671 31.92H37.5936C37.2973 30.3426 37.0775 28.6653 36.9997 26.88ZM53.721 26.88H60.3983C60.2219 28.6602 59.7571 30.3498 59.0694 31.92H53.1763C53.4476 30.3132 53.6525 28.6435 53.721 26.88ZM30.2371 35.28H34.926C35.293 36.5936 35.7067 37.8494 36.2122 38.9616C36.4879 39.568 36.7918 40.1288 37.108 40.6679C34.3648 39.5042 32.0016 37.6308 30.2371 35.28ZM38.4041 35.28H48.9566C48.6948 36.106 48.4059 36.8761 48.0904 37.5704C47.3969 39.0961 46.5881 40.2719 45.8066 40.9993C45.0251 41.7266 44.3404 42 43.6804 42C43.0203 42 42.3356 41.7266 41.5541 40.9993C40.7726 40.2719 39.9639 39.0961 39.2704 37.5704C38.9548 36.8761 38.666 36.106 38.4041 35.28ZM52.4347 35.28H57.1007C56.6943 35.8196 56.2685 36.3421 55.8013 36.8288C54.242 38.4535 52.3614 39.7589 50.2625 40.6547C50.5756 40.1197 50.8753 39.5627 51.1485 38.9616C51.654 37.8494 52.0677 36.5936 52.4347 35.28ZM22.6213 43.68C17.8553 43.68 15.691 44.8339 13.3058 45.7768H13.3025C8.75511 47.5788 0.951922 51.3319 0.951922 51.3319C0.752781 51.4275 0.574428 51.5615 0.42705 51.726C0.279672 51.8906 0.166156 52.0826 0.0929856 52.291C0.0198155 52.4994 -0.0115754 52.7202 0.000605915 52.9408C0.0127873 53.1614 0.0683022 53.3774 0.16398 53.5765C0.259657 53.7756 0.393623 53.9539 0.558226 54.1013C0.722829 54.2486 0.914843 54.362 1.1233 54.4352C1.33176 54.5083 1.55258 54.5396 1.77315 54.5273C1.99372 54.5151 2.20971 54.4595 2.4088 54.3638C2.4088 54.3638 10.2596 50.5968 14.5396 48.9005C17.1608 47.8643 18.3456 47.04 22.6213 47.04C24.9403 47.04 26.6902 47.3339 28.0485 47.7685C30.1544 48.442 31.3588 49.4277 32.406 50.4886C33.4316 51.528 34.2281 52.7303 35.6708 53.596C37.0576 54.4276 39.2032 55.1085 41.6558 55.7321C41.9095 55.8737 42.1955 55.9472 42.486 55.9454H42.4893C45.2471 56.6125 48.1652 57.12 50.4004 57.12C52.3638 57.12 53.751 57.4966 54.4888 57.96C55.2266 58.4235 55.4404 58.8059 55.4404 59.64C55.4404 60.6179 55.2153 60.9519 54.479 61.3889C53.7426 61.826 52.3333 62.16 50.4004 62.16H40.655C36.5412 62.16 30.703 60.5457 30.703 60.5457C30.4887 60.477 30.2628 60.4521 30.0387 60.4724C29.8146 60.4927 29.5969 60.5578 29.3984 60.6639C29.2 60.77 29.0248 60.9148 28.8834 61.0898C28.742 61.2649 28.6372 61.4665 28.5752 61.6828C28.5132 61.8992 28.4953 62.1257 28.5226 62.3491C28.5498 62.5724 28.6216 62.7881 28.7338 62.9831C28.8459 63.1782 28.9961 63.3488 29.1754 63.4847C29.3548 63.6206 29.5596 63.7192 29.7777 63.7744C29.7777 63.7744 35.7103 65.52 40.655 65.52H50.4004C52.6741 65.52 54.6231 65.2127 56.195 64.2797C56.6676 63.9993 57.0834 63.6362 57.4452 63.2232C57.5715 63.1754 57.6916 63.1126 57.8029 63.0361L72.9097 52.8741H72.913C75.533 51.3198 77.3396 50.8783 78.4157 50.8988C79.4921 50.9193 79.8997 51.2602 80.2433 51.7093C80.7415 52.3609 80.7806 52.7066 80.4566 53.4746C80.1326 54.2426 79.2066 55.3508 77.5855 56.4999C75.5684 57.9311 53.3702 72.6762 50.7613 74.1858C48.8308 75.3046 47.2743 76.4959 45.4949 77.0011C43.7161 77.5062 41.6119 77.5005 38.1711 75.8264H38.1679C35.8698 74.7069 26.1624 69.6373 23.0118 68.0105C21.2707 67.1107 19.8029 66.6135 18.3032 66.698C16.8035 66.7825 15.5334 67.4367 14.1983 68.2894C14.1939 68.2927 14.1896 68.296 14.1852 68.2993L9.6538 71.2557C9.46617 71.3748 9.30405 71.5301 9.17684 71.7123C9.04963 71.8946 8.95985 72.1003 8.9127 72.3175C8.86555 72.5348 8.86197 72.7592 8.90217 72.9778C8.94237 73.1964 9.02555 73.4049 9.14688 73.5911C9.26822 73.7773 9.4253 73.9376 9.60904 74.0627C9.79277 74.1878 9.9995 74.2752 10.2172 74.3199C10.435 74.3645 10.6594 74.3655 10.8776 74.3228C11.0957 74.28 11.3032 74.1945 11.488 74.071L16.0227 71.1146C17.1802 70.3772 17.865 70.0901 18.4935 70.0547C19.1261 70.0191 19.9699 70.2213 21.4696 70.9964C24.5915 72.6084 34.1722 77.6149 36.6979 78.8452C40.6655 80.7764 43.8561 80.9594 46.4136 80.2332C48.9712 79.507 50.795 78.049 52.4446 77.093C55.9442 75.0679 76.9991 61.0341 79.528 59.2397V59.243C81.4551 57.8771 82.8479 56.4468 83.5508 54.7805C84.2538 53.1142 84.0273 51.1285 82.911 49.6683C82.0333 48.5214 80.4654 47.5767 78.478 47.5388C77.0725 47.512 75.3912 48.0433 73.5397 48.8743C73.4697 48.5382 73.633 48.1674 73.484 47.8439C72.9128 46.605 71.6399 45.7321 70.2093 45.4486H70.206C68.3292 45.0776 66.2037 45.6558 64.0996 46.6233C63.9498 46.1672 63.8355 45.689 63.5319 45.3272C62.631 44.2534 61.335 43.872 60.1293 43.7785C57.7177 43.5915 55.2092 44.3789 53.3961 45.4585C50.8797 46.956 43.3599 51.7155 42.2661 52.4082C40.0205 51.8029 37.9965 51.0714 37.3968 50.7118C36.8235 50.3678 36.0203 49.3715 34.7947 48.1294C33.5436 46.8619 31.7678 45.4313 29.0722 44.5693C27.3326 44.0127 25.2247 43.68 22.6213 43.68ZM59.87 47.1286C60.5415 47.1807 60.8626 47.3748 60.9561 47.4863C61.0273 47.5711 61.1387 47.7294 61.0874 48.2246L52.7924 53.9438C52.0408 53.8328 51.2556 53.76 50.4004 53.76C49.5113 53.76 48.2947 53.6266 46.9682 53.4155C49.8912 51.5717 53.514 49.2938 55.1122 48.3427C56.2391 47.6717 58.5272 47.0245 59.87 47.1286ZM68.4374 48.7168C68.8817 48.6757 69.265 48.6854 69.5563 48.743C70.2542 48.8813 70.3214 49.0109 70.4324 49.2516C70.5148 49.4304 70.5401 49.8805 70.4816 50.4591L58.6461 58.4194C58.3527 57.2078 57.6361 56.1261 56.6347 55.3744L63.568 50.5969C63.6276 50.5569 63.6846 50.513 63.7386 50.4657C65.3383 49.3937 67.1462 48.836 68.4374 48.7168Z" fill="url(#paint0_linear_1_714)"/>
</g>
<defs>
<linearGradient id="paint0_linear_1_714" x1="-0.00195312" y1="42.8329" x2="83.9517" y2="42.8329" gradientUnits="userSpaceOnUse">
<stop stop-color="#BF9455"/>
<stop offset="1" stop-color="#F5F2AA"/>
</linearGradient>
<clipPath id="clip0_1_714">
<rect width="84" height="84" fill="white"/>
</clipPath>
</defs>
</svg>
