<svg width="84" height="84" viewBox="0 0 84 84" fill="none" xmlns="http://www.w3.org/2000/svg">
<path d="M8.4 8.3999C7.95445 8.39995 7.52716 8.57696 7.21211 8.89201C6.89706 9.20706 6.72004 9.63435 6.72 10.0799V18.4799H5.04C2.27645 18.4799 0 20.7564 0 23.5199V67.1999C0 69.9584 2.26747 72.2399 5.03016 72.2399H8.40984C23.9039 72.2416 39.7895 75.3247 40.3659 75.4391L40.3725 75.4424H40.3758C40.9101 75.5459 41.4537 75.5999 42 75.5999C42.5463 75.5999 43.0903 75.5463 43.6242 75.4424H43.6275L43.6308 75.4391C44.2209 75.3223 60.0978 72.2416 75.5902 72.2399H78.96C81.7235 72.2399 84 69.9635 84 67.1999V23.5199C84 20.7564 81.7235 18.4799 78.96 18.4799H77.28V10.0799C77.28 9.63435 77.1029 9.20706 76.7879 8.89201C76.4728 8.57696 76.0455 8.39995 75.6 8.3999C58.84 8.3999 42.5122 11.6382 42 11.7402C41.4878 11.6382 25.16 8.3999 8.4 8.3999ZM10.08 11.8321C24.0626 12.0189 37.1007 14.26 40.32 14.8476V65.2016C36.508 64.5125 23.92 62.4117 10.08 62.2321V11.8321ZM73.92 11.8321V62.2321C60.08 62.4117 47.492 64.5125 43.68 65.2016V14.8476C46.8993 14.26 59.9374 12.0189 73.92 11.8321ZM57.12 20.1599V23.6643C54.2398 24.1296 52.3652 25.7399 51.4566 27.3491C50.3808 29.2543 50.4 31.1521 50.4 31.1521C50.4 33.5399 51.5996 35.4429 53.1202 36.681C54.6407 37.9191 56.443 38.6814 58.1208 39.4241C59.7986 40.1669 61.3482 40.8906 62.347 41.7177C63.3458 42.5448 63.84 43.2938 63.84 44.7299C63.84 44.7299 63.8259 45.7136 63.2362 46.7085C62.6467 47.7034 61.6875 48.7199 58.8 48.7199C56 48.7199 55.0625 47.5678 54.4228 46.2885C53.7832 45.0092 53.76 43.6799 53.76 43.6799H50.4C50.4 43.6799 50.3768 45.7106 51.4172 47.7913C52.2987 49.5543 54.1837 51.394 57.12 51.9191V55.4399H60.48V51.9421C63.3393 51.4998 65.2036 49.9741 66.1237 48.4213C67.2142 46.5812 67.2 44.7299 67.2 44.7299C67.2 42.3163 66.0141 40.3884 64.493 39.1288C62.9718 37.8692 61.1614 37.0976 59.4792 36.3529C57.797 35.6082 56.2393 34.8895 55.2398 34.0757C54.2404 33.2619 53.76 32.5443 53.76 31.1521C53.76 31.1521 53.7792 30.0697 54.3834 28.9996C54.9877 27.9295 55.9359 26.8799 58.8 26.8799C61.6 26.8799 62.5375 28.032 63.1772 29.3113C63.8168 30.5906 63.84 31.9199 63.84 31.9199H67.2C67.2 31.9199 67.2232 29.8892 66.1828 27.8085C65.3013 26.0455 63.4163 24.2058 60.48 23.6807V20.1599H57.12ZM5.04 21.8399H6.72V63.8399C6.72004 64.2854 6.89706 64.7127 7.21211 65.0278C7.52716 65.3428 7.95445 65.5199 8.4 65.5199C24.976 65.5199 41.6719 68.8471 41.6719 68.8471C41.8885 68.8902 42.1115 68.8902 42.3281 68.8471C42.3281 68.8471 59.024 65.5199 75.6 65.5199C76.0455 65.5199 76.4728 65.3428 76.7879 65.0278C77.1029 64.7127 77.28 64.2854 77.28 63.8399V21.8399H78.96C79.9092 21.8399 80.64 22.5707 80.64 23.5199V67.1999C80.64 68.1492 79.9092 68.8799 78.96 68.8799H75.5902C59.6564 68.8816 43.7282 71.9962 42.9778 72.1447C42.6503 72.208 42.3185 72.2399 42 72.2399C41.6794 72.2399 41.3481 72.2059 41.0156 72.1415L41.0222 72.1447C40.2613 71.9936 24.3452 68.8816 8.40984 68.8799H5.03016C4.08341 68.8799 3.36 68.1542 3.36 67.1999V23.5199C3.36 22.5707 4.09075 21.8399 5.04 21.8399Z" fill="url(#paint0_linear_1_722)"/>
<defs>
<linearGradient id="paint0_linear_1_722" x1="0" y1="41.9999" x2="84" y2="41.9999" gradientUnits="userSpaceOnUse">
<stop stop-color="#BF9455"/>
<stop offset="1" stop-color="#F5F2AA"/>
</linearGradient>
</defs>
</svg>
