<svg width="85" height="84" viewBox="0 0 85 84" fill="none" xmlns="http://www.w3.org/2000/svg">
<g clip-path="url(#clip0_1_726)">
<path d="M58.0077 6.90357C56.2972 7.00405 54.5947 7.44687 53.0038 8.24232L43.7506 12.7672H17.5039L2.58079 9.11842C2.41687 9.07684 2.24762 9.06025 2.07876 9.0692C1.67426 9.08947 1.29069 9.25518 0.99867 9.53581C0.706648 9.81644 0.525823 10.1931 0.489479 10.5965C0.453136 10.9999 0.56372 11.4028 0.800877 11.7311C1.03803 12.0594 1.3858 12.291 1.78016 12.3833L17.097 16.1272H36.8764L22.4422 23.1851L22.5899 23.1228C20.1931 24.0216 19.5324 27.2442 21.3036 29.0487C26.3111 34.5769 34.2641 36.4145 41.27 33.649L51.1564 29.8494L71.5527 50.2423C73.097 51.7867 73.097 54.2203 71.5527 55.7647C70.0083 57.309 67.5779 57.309 66.0336 55.7647C65.7164 55.4601 65.2925 55.2921 64.8529 55.2966C64.4132 55.301 63.9928 55.4777 63.6819 55.7886C63.371 56.0995 63.1943 56.5199 63.1899 56.9596C63.1854 57.3992 63.3535 57.8231 63.658 58.1403C65.2023 59.6846 65.2023 62.115 63.658 63.6594C62.1136 65.2037 59.68 65.2037 58.1356 63.6594L56.9609 62.4847C56.6438 62.1801 56.2199 62.0121 55.7802 62.0165C55.3405 62.021 54.9201 62.1976 54.6092 62.5086C54.2983 62.8195 54.1217 63.2399 54.1172 63.6796C54.1127 64.1192 54.2808 64.5431 54.5853 64.8603C56.1297 66.4046 56.1297 68.835 54.5853 70.3794C53.041 71.9237 50.6073 71.9237 49.063 70.3794L47.8883 69.2047C47.5711 68.9001 47.1472 68.7321 46.7076 68.7366C46.2679 68.741 45.8475 68.9177 45.5366 69.2286C45.2257 69.5395 45.049 69.9599 45.0446 70.3996C45.0401 70.8392 45.2081 71.2631 45.5127 71.5803C47.057 73.1246 47.057 75.555 45.5127 77.0994C43.9683 78.6437 41.5379 78.6437 39.9936 77.0994L37.9067 75.0092L39.1536 73.7623C41.6136 71.3024 41.6136 67.2973 39.1536 64.8373C37.9236 63.6073 36.3048 62.99 34.6878 62.99C34.6604 62.99 34.6332 62.9962 34.6058 62.9965C34.6262 61.3532 34.0184 59.7021 32.7683 58.452C31.5383 57.222 29.9228 56.6079 28.3058 56.6079C28.2146 56.6079 28.1246 56.6303 28.0334 56.6342C28.1067 54.9272 27.515 53.1987 26.2156 51.8994C24.9856 50.6694 23.3701 50.0553 21.7531 50.0553C21.6619 50.0553 21.5719 50.0776 21.4808 50.0815C21.5533 48.3754 20.9617 46.6454 19.663 45.3467C18.433 44.1167 16.8175 43.5026 15.2005 43.5026C13.5835 43.5026 11.968 44.1167 10.738 45.3467L9.19251 46.8922L2.46922 45.7208C2.35893 45.6998 2.24681 45.6899 2.13454 45.6912C1.71268 45.6951 1.30772 45.8575 1.0001 46.1462C0.692489 46.4349 0.504737 46.8288 0.474151 47.2495C0.443565 47.6703 0.572385 48.0871 0.835015 48.4173C1.09765 48.7474 1.47486 48.9667 1.89172 49.0315L7.41407 49.9897C6.90871 52.063 7.44308 54.3401 9.05797 55.955C10.3565 57.2535 12.0845 57.8451 13.7895 57.7728C13.717 59.4789 14.3086 61.2089 15.6074 62.5076C16.9067 63.807 18.6352 64.3987 20.3422 64.3255C20.2689 66.0324 20.8607 67.7609 22.16 69.0603C23.4292 70.3295 25.1085 70.9317 26.7767 70.8912C26.7368 72.5497 27.3079 74.2049 28.5453 75.4423C30.3058 77.2029 32.8537 77.6816 35.0652 76.9222L37.618 79.475C40.4416 82.2986 45.0646 82.2986 47.8883 79.475C49.2553 78.108 49.9285 76.3162 49.9719 74.5137C52.3956 75.154 55.0709 74.6451 56.9609 72.755C58.328 71.388 59.0011 69.5962 59.0445 67.7937C61.4674 68.4326 64.1443 67.9243 66.0336 66.035C67.6511 64.4175 68.2315 62.2249 67.9958 60.1025C70.1182 60.3381 72.3108 59.7578 73.9283 58.1403C75.7257 56.3429 76.3682 53.8175 75.8773 51.4892L76.8978 50.4687L83.0699 49.5401C83.4889 49.4808 83.8702 49.2655 84.1373 48.9372C84.4045 48.609 84.538 48.192 84.5111 47.7696C84.4841 47.3472 84.2987 46.9506 83.992 46.6589C83.6853 46.3673 83.2798 46.2022 82.8566 46.1965C82.7609 46.1961 82.6654 46.2037 82.5711 46.2195L75.3031 47.3089L74.2958 48.3162C74.1697 48.1679 74.0682 48.0066 73.9283 47.8667L53.263 27.2047C53.1787 27.1172 53.0852 27.039 52.9841 26.9717C52.7741 26.6483 52.4593 26.4068 52.0925 26.2879C51.7257 26.1691 51.3291 26.1799 50.9694 26.3187L40.0428 30.522L40.0363 30.5253C34.2921 32.7927 27.8248 31.2837 23.758 26.765L23.7284 26.7322L23.6956 26.6994C23.4796 26.4833 23.4902 26.3749 23.7711 26.2695L23.8466 26.24L44.5513 16.114C44.9413 16.0728 45.3047 15.8963 45.5783 15.6153L54.5 11.2512L54.5066 11.2479C57.6215 9.6905 61.263 9.98053 64.1108 11.9239L64.8786 12.8459L65.0689 12.9772C68.1511 15.0961 71.8906 15.6908 75.3753 14.7228L83.1716 13.0658C83.3929 13.0255 83.6039 12.9412 83.7921 12.8178C83.9802 12.6945 84.1417 12.5346 84.2669 12.3477C84.3921 12.1608 84.4785 11.9506 84.5209 11.7296C84.5634 11.5087 84.561 11.2815 84.514 11.0615C84.4669 10.8414 84.3762 10.6331 84.2471 10.4488C84.118 10.2646 83.9533 10.1081 83.7626 9.98867C83.5719 9.86927 83.3592 9.78938 83.137 9.75375C82.9149 9.71812 82.6879 9.72746 82.4694 9.78123L74.5255 11.4711L74.4763 11.4842C71.9565 12.1841 69.3633 11.7684 67.0967 10.257L66.3289 9.33498L66.1452 9.20701C64.2158 7.85643 61.9892 7.08579 59.7172 6.9167C59.1492 6.87443 58.5778 6.87008 58.0077 6.90357ZM15.2005 46.797C15.9355 46.797 16.6693 47.1043 17.2874 47.7223C18.5234 48.9584 18.5234 50.6633 17.2874 51.8994L15.6074 53.5794C14.3713 54.8154 12.6696 54.8154 11.4336 53.5794C10.4293 52.5751 10.2547 51.2643 10.8823 50.1439C11.202 49.9385 11.4426 49.6308 11.5648 49.2711L13.1136 47.7223C13.7316 47.1043 14.4655 46.797 15.2005 46.797ZM21.7531 53.3497C22.4882 53.3497 23.222 53.657 23.84 54.275C25.076 55.511 25.076 57.216 23.84 58.452L22.16 60.132C20.924 61.368 19.219 61.368 17.983 60.132C16.7469 58.896 16.7469 57.191 17.983 55.955L19.663 54.275C20.281 53.657 21.0181 53.3497 21.7531 53.3497ZM28.3058 59.9023C29.0408 59.9023 29.7746 60.2096 30.3927 60.8276C31.3901 61.825 31.5693 63.1248 30.957 64.2401C30.7054 64.4258 30.453 64.6096 30.2253 64.8373L28.5158 66.5436L28.4895 66.5731C28.3064 66.7745 28.1615 66.9981 28.0072 67.2162C26.8791 67.8682 25.5506 67.6996 24.5356 66.6847C23.2996 65.4486 23.2996 63.7437 24.5356 62.5076L26.2156 60.8276C26.8336 60.2096 27.5708 59.9023 28.3058 59.9023ZM34.6878 66.2844C35.4228 66.2844 36.16 66.5949 36.778 67.213C38.014 68.449 38.014 70.1507 36.778 71.3867L35.098 73.0667C33.8619 74.3027 32.157 74.3027 30.9209 73.0667C30.1178 72.2635 29.9626 70.6905 30.5403 69.5065C30.7245 69.3598 30.9179 69.2307 31.0883 69.0603L32.7683 67.3803C32.996 67.1526 33.1799 66.9003 33.3655 66.6486C33.7893 66.4152 34.2366 66.2844 34.6878 66.2844Z" fill="url(#paint0_linear_1_726)"/>
</g>
<defs>
<linearGradient id="paint0_linear_1_726" x1="0.469727" y1="44.237" x2="84.5511" y2="44.237" gradientUnits="userSpaceOnUse">
<stop stop-color="#BF9455"/>
<stop offset="1" stop-color="#F5F2AA"/>
</linearGradient>
<clipPath id="clip0_1_726">
<rect width="84" height="84" fill="white" transform="translate(0.5)"/>
</clipPath>
</defs>
</svg>
