<svg width="85" height="84" viewBox="0 0 85 84" fill="none" xmlns="http://www.w3.org/2000/svg">
<g clip-path="url(#clip0_1_718)">
<path d="M12.2598 3.35986V80.6399H30.7398V77.2799H15.6198V6.71986H49.2198V26.8799H69.3798V48.7199H72.7398V24.5042L51.5954 3.35986H12.2598ZM52.5798 9.09549L67.0041 23.5199H52.5798V9.09549ZM30.7398 15.1199V18.9195C27.9792 19.4482 25.944 20.814 25.0665 22.4141C23.9994 24.3598 24.0198 26.286 24.0198 26.286C24.0198 28.89 25.3579 30.9233 27.0615 32.1889C28.7651 33.4546 30.7824 34.1721 32.6724 34.8763C34.5624 35.5804 36.3251 36.2735 37.4565 37.1141C38.5879 37.9546 39.1398 38.7239 39.1398 40.3199C39.1398 40.3199 39.1288 41.5375 38.3457 42.7906C37.5625 44.0438 36.1718 45.3599 32.4198 45.3599C28.7798 45.3599 27.4222 43.7878 26.5726 42.0885C25.7229 40.3892 25.6998 38.6399 25.6998 38.6399H22.3398C22.3398 38.6399 22.3166 41.0906 23.567 43.5913C24.654 45.7653 27.0323 47.9276 30.7398 48.4836V52.0799H34.0998V48.336C37.5954 47.8553 40.0733 46.362 41.1938 44.5691C42.5106 42.4622 42.4998 40.3199 42.4998 40.3199C42.4998 37.7159 41.1616 35.6825 39.458 34.4169C37.7545 33.1513 35.7371 32.4337 33.8471 31.7295C31.9571 31.0254 30.1945 30.3356 29.063 29.495C27.9316 28.6545 27.3798 27.882 27.3798 26.286C27.3798 26.286 27.4001 25.1495 28.013 24.0317C28.626 22.914 29.5703 21.8399 32.4198 21.8399C35.2198 21.8399 36.1573 22.992 36.797 24.2713C37.4366 25.5506 37.4598 26.8799 37.4598 26.8799H40.8198C40.8198 26.8799 40.8429 24.8492 39.8026 22.7685C38.9454 21.054 36.8983 19.5398 34.0998 18.9589V15.1199H30.7398ZM71.0598 52.0799C67.6502 52.0799 64.5637 52.5577 62.1807 53.4088C60.9892 53.8343 59.9646 54.3457 59.139 55.0428C58.4287 55.6426 57.8459 56.4809 57.6887 57.4742C57.6421 57.6319 57.6189 57.7955 57.6198 57.9599V60.6472C57.2334 60.4657 56.8506 60.283 56.4188 60.1288C54.0358 59.2777 50.9493 58.7999 47.5398 58.7999C44.1302 58.7999 41.0437 59.2777 38.6607 60.1288C37.4692 60.5543 36.4446 61.0657 35.619 61.7628C34.9087 62.3626 34.3259 63.2009 34.1687 64.1942C34.1221 64.3519 34.0989 64.5155 34.0998 64.6799V78.1199C34.0998 79.3353 34.7934 80.3397 35.619 81.0369C36.4446 81.7341 37.4692 82.2454 38.6607 82.671C41.0438 83.522 44.1302 83.9999 47.5398 83.9999C50.9493 83.9999 54.0358 83.522 56.4188 82.671C57.537 82.2716 58.5021 81.7915 59.2998 81.1583C60.0974 81.7915 61.0625 82.2716 62.1807 82.671C64.5638 83.522 67.6502 83.9999 71.0598 83.9999C74.4693 83.9999 77.5558 83.522 79.9388 82.671C81.1304 82.2454 82.1549 81.7341 82.9806 81.0369C83.8062 80.3397 84.4998 79.3353 84.4998 78.1199V71.3999V64.6799V57.9599C84.502 57.7911 84.4788 57.623 84.4309 57.4611V57.4578C84.2696 56.4716 83.687 55.6394 82.9806 55.0428C82.155 54.3457 81.1303 53.8343 79.9388 53.4088C77.5558 52.5577 74.4693 52.0799 71.0598 52.0799ZM71.0598 55.4399C74.1451 55.4399 76.9368 55.9029 78.8101 56.5719C79.7467 56.9064 80.4471 57.3009 80.8116 57.6088C81.1762 57.9166 81.1398 58.0155 81.1398 57.9599C81.1398 57.9042 81.1762 58.0031 80.8116 58.311C80.4471 58.6188 79.7467 59.0133 78.8101 59.3478C76.9368 60.0168 74.1451 60.4799 71.0598 60.4799C67.9745 60.4799 65.1827 60.0168 63.3095 59.3478C62.3728 59.0133 61.6725 58.6188 61.3079 58.311C60.9433 58.0031 60.9798 57.9042 60.9798 57.9599C60.9798 58.0155 60.9433 57.9166 61.3079 57.6088C61.6725 57.3009 62.3728 56.9064 63.3095 56.5719C65.1827 55.9029 67.9745 55.4399 71.0598 55.4399ZM60.9798 61.9925C61.3662 62.174 61.7489 62.3567 62.1807 62.511C64.5637 63.362 67.6502 63.8399 71.0598 63.8399C74.4693 63.8399 77.5558 63.362 79.9388 62.511C80.3706 62.3567 80.7534 62.174 81.1398 61.9925V64.6799C81.1398 64.6245 81.1762 64.7231 80.8116 65.031C80.4471 65.3388 79.7467 65.7334 78.8101 66.0678C76.9369 66.7368 74.1451 67.1999 71.0598 67.1999C67.9744 67.1999 65.1827 66.7368 63.3095 66.0678C62.3728 65.7334 61.6724 65.3388 61.3079 65.031C60.9433 64.7231 60.9798 64.6245 60.9798 64.6799V61.9925ZM47.5398 62.1599C50.6251 62.1599 53.4168 62.6229 55.2901 63.2919C56.2267 63.6264 56.9271 64.0209 57.2916 64.3288C57.6562 64.6366 57.6198 64.7355 57.6198 64.6799C57.6198 64.6242 57.6562 64.7231 57.2916 65.031C56.9271 65.3388 56.2267 65.7333 55.2901 66.0678C53.4168 66.7368 50.6251 67.1999 47.5398 67.1999C44.4545 67.1999 41.6627 66.7368 39.7895 66.0678C38.8528 65.7333 38.1525 65.3388 37.7879 65.031C37.4233 64.7231 37.4598 64.6242 37.4598 64.6799C37.4598 64.7355 37.4233 64.6366 37.7879 64.3288C38.1525 64.0209 38.8528 63.6264 39.7895 63.2919C41.6627 62.6229 44.4545 62.1599 47.5398 62.1599ZM37.4598 68.7125C37.8462 68.894 38.2289 69.0767 38.6607 69.231C41.0437 70.082 44.1302 70.5599 47.5398 70.5599C50.9493 70.5599 54.0358 70.082 56.4188 69.231C56.8506 69.0767 57.2334 68.894 57.6198 68.7125V71.3999C57.6198 71.3445 57.6562 71.4431 57.2916 71.751C56.9271 72.0588 56.2267 72.4534 55.2901 72.7878C53.4169 73.4568 50.6251 73.9199 47.5398 73.9199C44.4544 73.9199 41.6627 73.4568 39.7895 72.7878C38.8528 72.4534 38.1524 72.0588 37.7879 71.751C37.4233 71.4431 37.4598 71.3445 37.4598 71.3999V68.7125ZM60.9798 68.7125C61.3662 68.894 61.7489 69.0768 62.1807 69.231C64.5638 70.082 67.6502 70.5599 71.0598 70.5599C74.4693 70.5599 77.5558 70.082 79.9388 69.231C80.3706 69.0768 80.7534 68.894 81.1398 68.7125V71.3999C81.1398 71.3445 81.1762 71.4431 80.8116 71.751C80.4471 72.0588 79.7467 72.4534 78.8101 72.7878C76.9369 73.4568 74.1451 73.9199 71.0598 73.9199C67.9744 73.9199 65.1827 73.4568 63.3095 72.7878C62.3728 72.4534 61.6724 72.0588 61.3079 71.751C60.9433 71.4431 60.9798 71.3445 60.9798 71.3999V68.7125ZM37.4598 75.4325C37.8462 75.614 38.2289 75.7968 38.6607 75.951C41.0438 76.802 44.1302 77.2799 47.5398 77.2799C50.9493 77.2799 54.0358 76.802 56.4188 75.951C56.8506 75.7968 57.2334 75.614 57.6198 75.4325V78.1199C57.6198 78.0645 57.6562 78.1631 57.2916 78.471C56.9271 78.7788 56.2267 79.1734 55.2901 79.5078C53.4169 80.1768 50.6251 80.6399 47.5398 80.6399C44.4544 80.6399 41.6627 80.1768 39.7895 79.5078C38.8528 79.1734 38.1524 78.7788 37.7879 78.471C37.4233 78.1631 37.4598 78.0645 37.4598 78.1199V75.4325ZM60.9798 75.4325C61.3662 75.614 61.7489 75.7968 62.1807 75.951C64.5638 76.802 67.6502 77.2799 71.0598 77.2799C74.4693 77.2799 77.5558 76.802 79.9388 75.951C80.3706 75.7968 80.7534 75.614 81.1398 75.4325V78.1199C81.1398 78.0645 81.1762 78.1631 80.8116 78.471C80.4471 78.7788 79.7467 79.1734 78.8101 79.5078C76.9369 80.1768 74.1451 80.6399 71.0598 80.6399C67.9744 80.6399 65.1827 80.1768 63.3095 79.5078C62.3728 79.1734 61.6724 78.7788 61.3079 78.471C60.9433 78.1631 60.9798 78.0645 60.9798 78.1199V75.4325Z" fill="url(#paint0_linear_1_718)"/>
</g>
<defs>
<linearGradient id="paint0_linear_1_718" x1="12.2598" y1="43.6799" x2="84.4999" y2="43.6799" gradientUnits="userSpaceOnUse">
<stop stop-color="#BF9455"/>
<stop offset="1" stop-color="#F5F2AA"/>
</linearGradient>
<clipPath id="clip0_1_718">
<rect width="84" height="84" fill="white" transform="translate(0.5)"/>
</clipPath>
</defs>
</svg>
