<svg width="24" height="24" viewBox="0 0 24 24" fill="none" xmlns="http://www.w3.org/2000/svg">
<g clip-path="url(#clip0_2_1755)">
<path d="M13.44 0.959961C10.8 0.959961 8.63996 3.11996 8.63996 5.75996C8.63996 9.88796 12.9123 14.9756 13.1043 15.2156C13.1523 15.3116 13.296 15.36 13.44 15.36C13.584 15.36 13.7283 15.3118 13.8243 15.1678C14.0163 14.9758 18.24 9.79196 18.24 5.75996C18.24 3.11996 16.08 0.959961 13.44 0.959961ZM1.34434 2.87996C1.10434 2.92796 0.959961 3.11996 0.959961 3.35996V20.64C0.959961 20.832 1.05596 20.9761 1.19996 21.0721L6.47996 23.9521C6.62396 24.0001 6.72034 24.0001 6.86434 23.9521L12 21.1678L17.5678 23.9521C17.7118 24.0001 17.8561 24.0001 17.9521 23.9521L22.8 21.0721C22.944 20.9761 23.04 20.832 23.04 20.64V3.35996C23.04 3.21596 22.9438 3.02359 22.8478 2.97559C22.7038 2.87959 22.5596 2.87959 22.4156 2.97559L19.1521 4.89559C19.2001 5.18359 19.2478 5.47196 19.2478 5.75996C19.2478 10.032 15.0721 15.2161 14.5921 15.7921C14.2561 16.1281 13.872 16.32 13.44 16.32C13.008 16.32 12.6236 16.128 12.3356 15.84C12.1436 15.6 7.67996 10.272 7.67996 5.75996C7.67996 5.56796 7.67977 5.37559 7.72777 5.13559L6.71996 5.71215L1.58434 2.92777C1.53634 2.87977 1.44034 2.87996 1.34434 2.87996ZM13.44 4.31996C14.496 4.31996 15.36 5.18396 15.36 6.23996C15.36 7.29596 14.496 8.15996 13.44 8.15996C12.384 8.15996 11.52 7.29596 11.52 6.23996C11.52 5.18396 12.384 4.31996 13.44 4.31996Z" fill="white"/>
</g>
<defs>
<clipPath id="clip0_2_1755">
<rect width="24" height="24" fill="white"/>
</clipPath>
</defs>
</svg>
