<svg width="24" height="24" viewBox="0 0 24 24" fill="none" xmlns="http://www.w3.org/2000/svg">
<path d="M1.91992 1.91992V7.67992H4.31992V4.31992H7.67992V1.91992H1.91992ZM16.3199 1.91992V4.31992H19.6799V7.67992H22.0799V1.91992H16.3199ZM11.9999 10.5599C11.618 10.5599 11.2517 10.7116 10.9817 10.9817C10.7116 11.2517 10.5599 11.618 10.5599 11.9999C10.5599 12.3818 10.7116 12.7481 10.9817 13.0182C11.2517 13.2882 11.618 13.4399 11.9999 13.4399C12.3818 13.4399 12.7481 13.2882 13.0182 13.0182C13.2882 12.7481 13.4399 12.3818 13.4399 11.9999C13.4399 11.618 13.2882 11.2517 13.0182 10.9817C12.7481 10.7116 12.3818 10.5599 11.9999 10.5599ZM1.91992 16.3199V22.0799H7.67992V19.6799H4.31992V16.3199H1.91992ZM19.6799 16.3199V19.6799H16.3199V22.0799H22.0799V16.3199H19.6799Z" fill="white"/>
</svg>
